<?xml version="1.0" encoding="UTF-8" standalone="no"?>
<svg
   width="3292.1575"
   height="546.08716"
   xml:space="preserve"
   overflow="hidden"
   version="1.1"
   id="svg8"
   xmlns="http://www.w3.org/2000/svg"
   xmlns:svg="http://www.w3.org/2000/svg"><defs
     id="defs8" /><g
     transform="translate(-673.49973,-889.53783)"
     id="g8"><text
       fill="#d9d9d9"
       font-family="'Roboto Slab', 'Roboto Slab_MSFontService', sans-serif"
       font-weight="700"
       font-size="303px"
       transform="translate(1337.02,1293)"
       id="text1">LMMs</text><text
       fill="#d9d9d9"
       font-family="'Roboto Slab', 'Roboto Slab_MSFontService', sans-serif"
       font-weight="700"
       font-size="303px"
       transform="translate(2277.75,1293)"
       id="text2">-</text><text
       fill="#d9d9d9"
       font-family="'Roboto Slab', 'Roboto Slab_MSFontService', sans-serif"
       font-weight="700"
       font-size="303px"
       transform="translate(2398.06,1293)"
       id="text3">Lab </text><text
       fill="#d9d9d9"
       font-family="Pacifico, Pacifico_MSFontService, sans-serif"
       font-weight="700"
       font-size="303px"
       transform="translate(2993.33,1293)"
       id="text4">Writer</text><text
       fill="#d9d9d9"
       font-family="Pacifico, Pacifico_MSFontService, sans-serif"
       font-weight="700"
       font-size="303px"
       transform="translate(3962.7,1293)"
       id="text5"> </text><g
       id="g7"><g
         id="g6"><g
           id="g5"><path
             d="M 620.69,200.335 498.666,78.3372 c -17.06,-17.063 -44.72,-17.0663 -61.783,-0.0071 -0.002,0.0024 -0.005,0.0046 -0.008,0.0071 L 100.181,415.031 c -8.2303,8.164 -12.8431,19.288 -12.806,30.882 v 122.025 c 0,24.129 19.559,43.687 43.688,43.687 h 458.718 c 12.064,0 21.844,-9.78 21.844,-21.844 0,-12.063 -9.78,-21.843 -21.844,-21.843 H 314.878 L 620.69,262.125 c 17.063,-17.059 17.066,-44.72 0.008,-61.783 -0.002,-0.003 -0.005,-0.005 -0.008,-0.007 z M 253.087,567.938 H 131.063 V 445.913 L 371.344,205.632 493.369,327.656 Z M 524.25,296.775 402.253,174.75 467.784,109.219 589.781,231.243 Z"
             fill="#d9d9d9"
             transform="matrix(1.00143,0,0,1,586,824)"
             id="path5" /></g></g></g></g></svg>
