<?xml version="1.0" encoding="UTF-8" standalone="no"?>
<svg
   width="3292.1575"
   height="546.08716"
   xml:space="preserve"
   overflow="hidden"
   version="1.1"
   id="svg8"
   xmlns="http://www.w3.org/2000/svg"
   xmlns:svg="http://www.w3.org/2000/svg"><defs
     id="defs8" /><g
     transform="translate(-673.49972,-889.53782)"
     id="g8"><path
       d="M 8.2851563,0 V -25.891113 L 31.217285,-30.32959 V -184.93652 L 8.2851563,-189.375 v -26.03906 H 31.217285 74.418457 100.45752 v 26.03906 l -26.039063,4.43848 v 151.795895 h 60.807133 l 2.07128,-31.513184 h 32.99268 V 0 Z M 185.82422,0 v -25.891113 l 22.93213,-4.438477 v -154.60693 l -22.93213,-4.43848 v -26.03906 h 22.93213 63.91406 l 58.73584,150.168455 h 0.8877 l 56.8125,-150.168455 h 86.99414 v 26.03906 l -23.08008,4.43848 v 154.60693 l 23.08008,4.438477 V 0 h -89.21338 v -25.891113 l 24.11572,-4.438477 v -41.277832 l 0.73975,-97.202638 -0.8877,-0.14795 -64.35791,165.9990256 h -32.69678 l -65.8374,-164.6674756 -0.88769,0.14794 2.51513,91.432622 v 45.716308 l 25.44727,4.438477 V 0 Z M 491.4873,0 v -25.891113 l 22.93213,-4.438477 V -184.93652 L 491.4873,-189.375 v -26.03906 h 22.93213 63.91407 l 58.73584,150.168455 h 0.88769 l 56.8125,-150.168455 h 86.99414 v 26.03906 l -23.08008,4.43848 v 154.60693 l 23.08008,4.438477 V 0 h -89.21338 v -25.891113 l 24.11573,-4.438477 v -41.277832 l 0.73974,-97.202638 -0.88769,-0.14795 -64.35791,165.9990256 h -32.69678 l -65.8374,-164.6674756 -0.8877,0.14794 2.51514,91.432622 v 45.716308 l 25.44726,4.438477 V 0 Z m 375.34717,3.1069336 q -17.90185,0 -33.43652,-3.40283204 -15.38672,-3.40283206 -29.58984,-9.76464856 l -0.44385,-45.272461 h 30.03369 l 5.77002,23.080078 q 5.03027,2.515137 10.94824,3.994629 6.06592,1.479492 13.75928,1.479492 14.49902,0 20.41699,-4.734375 5.91797,-4.734375 5.91797,-11.835937 0,-6.657715 -6.36182,-11.687988 -6.21386,-5.178223 -25.00342,-9.024903 -28.40625,-5.917968 -41.86962,-18.345703 -13.46338,-12.427734 -13.46338,-31.809085 0,-13.31543 6.65771,-24.26367 6.80567,-10.94824 20.56494,-17.60596 13.90723,-6.65771 35.50782,-6.65771 18.0498,0 32.99267,3.55078 15.09082,3.40283 25.29932,9.0249 l 0.44385,43.79297 h -29.88575 l -4.58642,-21.00879 q -3.99463,-2.95898 -9.46875,-4.43847 -5.32617,-1.4795 -12.13184,-1.4795 -11.39209,0 -17.45801,4.58643 -6.06591,4.58643 -6.06591,11.83594 0,4.14258 2.07128,7.69336 2.21924,3.55078 8.58106,6.65771 6.36182,3.106935 18.49365,5.91797 29.73779,6.805664 43.34912,18.197754 13.61133,11.244141 13.61133,31.661133 0,22.340332 -16.27441,36.099609 -16.12647,13.7592776 -48.3794,13.7592776 z"
       id="text1"
       style="font-weight:700;font-size:303px;font-family:'Roboto Slab', 'Roboto Slab_MSFontService', sans-serif;fill:#d9d9d9"
       transform="translate(1337.02,1293)"
       aria-label="LMMs" /><path
       d="m 19.381348,-75.454102 v -33.288578 h 83.443362 v 33.288578 z"
       id="text2"
       style="font-weight:700;font-size:303px;font-family:'Roboto Slab', 'Roboto Slab_MSFontService', sans-serif;fill:#d9d9d9"
       transform="translate(2277.75,1293)"
       aria-label="-" /><path
       d="M 8.2851563,0 V -25.891113 L 31.217285,-30.32959 V -184.93652 L 8.2851563,-189.375 v -26.03906 H 31.217285 74.418457 100.45752 v 26.03906 l -26.039063,4.43848 v 151.795895 h 60.807133 l 2.07128,-31.513184 h 32.99268 V 0 Z M 240.45621,3.1069336 q -23.81983,0 -37.875,-12.7236328 -14.05518,-12.8715818 -14.05518,-34.9160158 0,-22.63623 18.3457,-36.691406 18.34571,-14.203125 53.70557,-14.203125 h 21.15674 v -11.835934 q 0,-11.54004 -6.80566,-18.64161 -6.65772,-7.24951 -20.1211,-7.24951 -6.95361,0 -12.42773,1.77539 -5.47412,1.62745 -10.06055,4.73438 l -3.40283,21.15674 h -31.06934 l -0.59179,-41.57373 q 12.57568,-7.10157 27.22265,-11.54004 14.64697,-4.43848 32.69678,-4.43848 31.36523,0 49.56299,14.64697 18.19775,14.49903 18.19775,41.57373 v 65.985356 q 0,3.254882 0,6.509765 0.14795,3.106934 0.5918,6.065918 l 16.71826,2.367188 V 0 h -53.55762 q -1.62744,-4.1425781 -3.25488,-8.8769531 -1.62744,-4.7343749 -2.36719,-9.4687499 -7.69336,9.7646483 -18.19775,15.6826171 -10.35645,5.7700195 -24.41162,5.7700195 z m 11.54004,-31.9570316 q 9.0249,0 17.16211,-3.994629 8.1372,-4.142578 12.57568,-10.800293 v -25.299316 h -21.30469 q -14.20312,0 -21.60058,6.509766 -7.24952,6.509765 -7.24952,15.682617 0,8.581055 5.32618,13.31543 5.47412,4.586425 15.09082,4.586425 z M 451.24918,3.1069336 q -14.94288,0 -25.44727,-5.7700195 -10.50439,-5.9179688 -17.60596,-17.0141601 L 405.08902,0 h -37.2832 v -200.32324 l -22.93213,-4.43848 v -26.03906 h 65.98535 v 87.73389 q 6.95361,-9.6167 17.01416,-14.79493 10.2085,-5.17822 23.67187,-5.17822 19.38135,0 32.84473,10.5044 13.61133,10.35644 20.71289,29.29394 7.10156,18.9375 7.10156,44.532716 v 3.106933 q 0,23.819824 -7.10156,41.573731 -7.10156,17.605957 -20.71289,27.3706052 -13.61133,9.7646484 -33.14062,9.7646484 z M 438.0817,-30.477539 q 16.57031,0 23.81982,-11.687988 7.24951,-11.835938 7.24951,-33.436524 v -3.106933 q 0,-15.682618 -3.25488,-26.926756 -3.10693,-11.39209 -9.9126,-17.60596 -6.65771,-6.21387 -17.45801,-6.21387 -9.76465,0 -16.71826,4.58643 -6.95361,4.58643 -10.94824,12.42773 v 66.873051 q 4.43848,7.397461 11.24414,11.24414 6.95361,3.84668 15.97852,3.84668 z"
       id="text3"
       style="font-weight:700;font-size:303px;font-family:'Roboto Slab', 'Roboto Slab_MSFontService', sans-serif;fill:#d9d9d9"
       transform="translate(2398.06,1293)"
       aria-label="Lab " /><path
       d="m 399.354,-130.896 q 6.969,0 9.999,3.03 3.333,3.03 3.333,7.878 0,7.878 -4.848,13.938 -4.545,6.06 -14.544,6.363 -23.937,0.303 -43.026,-3.636 -21.21,45.147 -51.207,75.144 -29.694,29.694 -58.782,29.694 -26.664,0 -39.996,-28.179 -13.332,-28.482 -15.15,-76.053 -18.18,52.722 -41.208,78.477 -22.725,25.755 -48.48,25.755 -29.088,0 -43.935,-36.057 -14.847,-36.36 -14.847,-97.566 0,-44.541 7.878,-97.869 2.121,-15.15 7.575,-20.907 5.757,-6.06 17.877,-6.06 9.09,0 13.938,3.939 5.151,3.939 5.151,14.544 0,2.121 -0.606,8.181 -9.09,62.115 -9.09,105.747 0,40.602 6.969,62.721 6.969,22.119 18.786,22.119 10.605,0 25.452,-22.119 15.15,-22.422 29.997,-66.054 14.847,-43.935 25.149,-104.535 2.424,-13.938 8.787,-19.089 6.666,-5.454 17.877,-5.454 9.393,0 13.635,4.242 4.545,3.939 4.545,12.12 0,4.848 -0.606,7.575 -8.484,49.389 -8.484,98.778 0,33.633 2.121,53.631 2.424,19.998 8.787,30.603 6.666,10.302 19.089,10.302 14.544,0 32.421,-21.816 17.877,-22.119 32.724,-54.843 -18.483,-11.514 -27.876,-29.694 -9.393,-18.483 -9.393,-42.42 0,-23.937 7.272,-40.299 7.575,-16.665 20.301,-24.846 13.029,-8.181 28.785,-8.181 19.392,0 30.603,13.938 11.514,13.938 11.514,38.178 0,34.239 -14.847,76.053 15.453,2.727 36.36,2.727 z m -89.385,-59.691 q 0,29.694 19.089,43.935 11.817,-33.936 11.817,-56.055 0,-12.726 -3.333,-18.483 -3.333,-6.06 -9.09,-6.06 -8.181,0 -13.332,9.696 -5.151,9.393 -5.151,26.967 z M 404.80828,1.515 q -11.514,0 -16.362,-12.12 -4.545,-12.12 -4.545,-38.784 0,-39.39 11.211,-74.841 2.727,-8.787 8.787,-12.726 6.363,-4.242 17.574,-4.242 6.06,0 8.484,1.515 2.424,1.515 2.424,5.757 0,4.848 -4.545,21.816 -3.03,12.12 -4.848,21.21 -1.818,9.09 -3.03,22.422 9.999,-26.058 22.422,-42.42 12.423,-16.362 24.24,-23.331 12.12,-6.969 22.119,-6.969 19.695,0 19.695,19.695 0,3.939 -2.727,19.089 -2.424,12.12 -2.424,15.15 0,10.605 7.575,10.605 8.484,0 21.816,-13.332 3.939,-3.939 8.181,-3.939 3.939,0 6.06,3.636 2.424,3.333 2.424,9.09 0,11.211 -6.06,17.574 -8.484,8.787 -19.998,15.15 -11.211,6.06 -23.937,6.06 -16.059,0 -24.543,-8.181 -8.181,-8.181 -8.181,-22.119 0,-4.545 0.909,-9.09 0.606,-6.06 0.606,-8.181 0,-4.848 -3.333,-4.848 -4.545,0 -12.12,10.302 -7.272,9.999 -14.544,26.664 -7.272,16.665 -11.817,35.148 -3.333,14.241 -7.878,19.392 -4.242,4.848 -13.635,4.848 z m 156.04499,-162.711 q -12.726,0 -19.089,-5.757 -6.363,-6.06 -6.363,-16.665 0,-10.605 8.181,-17.574 8.484,-7.272 20.907,-7.272 11.211,0 18.18,5.454 6.969,5.454 6.969,15.453 0,12.12 -7.878,19.392 -7.878,6.969 -20.907,6.969 z m -2.424,162.711 q -19.695,0 -28.785,-13.938 -8.787,-13.938 -8.787,-36.966 0,-13.635 3.333,-34.845 3.636,-21.513 9.09,-39.996 2.727,-9.696 7.272,-13.332 4.545,-3.636 14.544,-3.636 15.453,0 15.453,10.302 0,7.575 -5.757,35.148 -7.272,33.33 -7.272,45.147 0,9.09 2.424,13.938 2.424,4.848 8.181,4.848 5.454,0 13.635,-7.575 8.181,-7.575 21.816,-23.937 3.636,-4.242 8.181,-4.242 3.939,0 6.06,3.636 2.424,3.636 2.424,9.999 0,12.12 -5.757,18.786 -29.997,36.663 -56.055,36.663 z m 172.40709,-69.084 q 3.939,0 6.06,3.636 2.424,3.636 2.424,9.999 0,12.12 -5.757,18.786 -13.029,16.059 -28.482,26.361 -15.453,10.302 -35.451,10.302 -61.812,0 -61.812,-86.961 0,-13.332 0.909,-26.967 h -11.817 q -9.09,0 -12.423,-3.333 -3.03,-3.333 -3.03,-10.605 0,-16.968 13.635,-16.968 h 17.271 q 5.151,-33.33 15.756,-60.903 10.605,-27.573 25.452,-43.935 15.15,-16.362 32.421,-16.362 12.726,0 19.998,11.211 7.272,11.211 7.272,28.179 0,46.965 -39.39,81.81 h 33.936 q 4.848,0 6.969,2.121 2.121,2.121 2.121,7.878 0,20.907 -34.239,20.907 h -36.966 q -0.606,15.15 -0.606,23.634 0,31.512 7.272,44.238 7.575,12.726 23.634,12.726 13.029,0 23.028,-7.878 9.999,-7.878 23.634,-23.634 3.636,-4.242 8.181,-4.242 z m -53.025,-167.862 q -4.545,0 -10.302,11.514 -5.454,11.211 -10.605,31.512 -4.848,19.998 -8.181,44.541 17.877,-15.453 26.664,-34.542 9.09,-19.392 9.09,-35.148 0,-17.877 -6.666,-17.877 z m 172.10386,167.862 q 3.939,0 6.06,3.636 2.424,3.636 2.424,9.999 0,12.12 -5.757,18.786 -11.211,13.635 -31.815,25.149 -20.301,11.514 -43.632,11.514 -31.815,0 -49.389,-17.271 -17.574,-17.271 -17.574,-47.268 0,-20.907 8.787,-38.784 8.787,-18.18 24.24,-28.785 15.756,-10.605 35.451,-10.605 17.574,0 28.179,10.605 10.605,10.302 10.605,28.179 0,20.907 -15.15,36.057 -14.847,14.847 -50.601,23.634 7.575,13.938 28.785,13.938 13.635,0 30.906,-9.393 17.574,-9.696 30.3,-25.149 3.636,-4.242 8.181,-4.242 z m -76.356,-43.935 q -11.211,0 -19.089,13.029 -7.575,13.029 -7.575,31.512 v 0.606 q 17.877,-4.242 28.179,-12.726 10.302,-8.484 10.302,-19.695 0,-5.757 -3.333,-9.09 -3.03,-3.636 -8.484,-3.636 z m 182.70891,11.817 q 6.666,0 11.211,4.848 4.848,4.545 4.848,11.514 0,3.939 -1.818,8.484 -4.848,11.211 -13.635,18.786 -8.787,7.575 -19.392,7.575 -8.484,0 -14.544,-6.06 -5.757,-6.06 -5.757,-16.362 0,-5.757 0.606,-12.423 0.606,-4.848 0.606,-6.666 0,-2.424 -1.212,-3.636 -0.909,-1.212 -2.424,-1.212 -4.242,0 -11.514,10.302 -7.272,9.999 -14.544,26.664 -7.272,16.665 -11.817,35.148 -3.333,14.544 -7.575,19.392 -4.242,4.848 -13.938,4.848 -11.514,0 -16.362,-12.12 -4.545,-12.12 -4.545,-38.784 0,-39.39 11.211,-74.841 2.727,-8.787 8.787,-12.726 6.363,-4.242 17.574,-4.242 6.06,0 8.484,1.515 2.424,1.515 2.424,5.757 0,4.848 -4.545,21.816 -3.03,12.12 -4.848,21.21 -1.818,9.09 -3.03,22.422 9.999,-26.058 22.422,-42.42 12.423,-16.362 24.24,-23.331 11.817,-6.969 21.513,-6.969 8.787,0 13.332,5.151 4.848,4.848 4.848,14.544 0,5.757 -3.333,21.816 z"
       id="text4"
       style="font-weight:700;font-size:303px;font-family:Pacifico, Pacifico_MSFontService, sans-serif;fill:#d9d9d9"
       transform="translate(2993.33,1293)"
       aria-label="Writer" /><text
       fill="#d9d9d9"
       font-family="Pacifico, Pacifico_MSFontService, sans-serif"
       font-weight="700"
       font-size="303px"
       transform="translate(3962.7,1293)"
       id="text5"> </text><g
       id="g7"><g
         id="g6"><g
           id="g5"><path
             d="M 620.69,200.335 498.666,78.3372 c -17.06,-17.063 -44.72,-17.0663 -61.783,-0.0071 -0.002,0.0024 -0.005,0.0046 -0.008,0.0071 L 100.181,415.031 c -8.2303,8.164 -12.8431,19.288 -12.806,30.882 v 122.025 c 0,24.129 19.559,43.687 43.688,43.687 h 458.718 c 12.064,0 21.844,-9.78 21.844,-21.844 0,-12.063 -9.78,-21.843 -21.844,-21.843 H 314.878 L 620.69,262.125 c 17.063,-17.059 17.066,-44.72 0.008,-61.783 -0.002,-0.003 -0.005,-0.005 -0.008,-0.007 z M 253.087,567.938 H 131.063 V 445.913 L 371.344,205.632 493.369,327.656 Z M 524.25,296.775 402.253,174.75 467.784,109.219 589.781,231.243 Z"
             fill="#d9d9d9"
             transform="matrix(1.00143,0,0,1,586,824)"
             id="path5" /></g></g></g></g></svg>
