<?xml version="1.0" encoding="UTF-8" standalone="no"?>
<svg
   width="1859.932"
   height="448.20428"
   xml:space="preserve"
   overflow="hidden"
   version="1.1"
   id="svg13"
   sodipodi:docname="图片14.svg"
   inkscape:export-filename="logo-light.svg"
   inkscape:export-xdpi="96"
   inkscape:export-ydpi="96"
   xmlns:inkscape="http://www.inkscape.org/namespaces/inkscape"
   xmlns:sodipodi="http://sodipodi.sourceforge.net/DTD/sodipodi-0.dtd"
   xmlns="http://www.w3.org/2000/svg"
   xmlns:svg="http://www.w3.org/2000/svg"><sodipodi:namedview
     id="namedview13"
     pagecolor="#ffffff"
     bordercolor="#999999"
     borderopacity="1"
     inkscape:showpageshadow="2"
     inkscape:pageopacity="0"
     inkscape:pagecheckerboard="0"
     inkscape:deskcolor="#d1d1d1" /><defs
     id="defs4"><clipPath
       id="clip0"><rect
         x="1588"
         y="56"
         width="2608"
         height="764"
         id="rect1" /></clipPath><linearGradient
       x1="1784"
       y1="380"
       x2="3601"
       y2="380"
       gradientUnits="userSpaceOnUse"
       spreadMethod="reflect"
       id="fill3"><stop
         offset="0"
         id="stop2" /><stop
         offset="0.5"
         id="stop3" /><stop
         offset="1"
         stop-color="#000000"
         stop-opacity="0"
         id="stop4" /></linearGradient></defs><g
     clip-path="url(#clip0)"
     transform="translate(-1741.068,-56.156702)"
     id="g13"><path
       d="m 61.393,-60.59 q 2.263,0.438 3.358,1.533 1.168,1.095 1.168,2.555 0,2.409 -1.387,3.504 -1.314,1.095 -4.234,0.876 -6.57,-0.511 -10.293,-0.657 -3.65,-0.219 -9.636,-0.292 -2.701,13.432 -4.964,27.01 -0.803,4.964 -1.679,11.534 -0.876,6.497 -1.168,10.512 -0.146,2.117 -1.752,3.285 -1.606,1.095 -3.869,1.095 -2.409,0 -3.723,-1.168 -1.314,-1.168 -1.314,-3.066 0,-1.752 0.511,-5.767 0.584,-4.088 1.314,-8.541 0.803,-4.453 1.241,-7.738 0.803,-5.548 1.825,-11.023 1.022,-5.475 2.044,-10.366 0.219,-1.095 0.511,-2.482 0.292,-1.46 0.657,-3.212 -7.154,0.219 -11.242,1.168 -4.088,0.949 -5.84,2.701 -1.679,1.679 -1.679,4.38 0,2.482 1.46,4.745 0.292,0.511 0.292,1.095 0,1.387 -1.679,2.628 -1.606,1.168 -3.358,1.168 -1.241,0 -2.044,-0.73 -1.46,-1.241 -2.409,-3.504 -0.949,-2.336 -0.949,-5.256 0,-6.205 4.015,-9.928 4.088,-3.796 12.337,-5.548 8.322,-1.752 21.316,-1.752 8.03,0 12.775,0.292 4.818,0.292 8.395,0.949 z m 33.507035,44.311 q 0.949,0 1.46,0.876 0.584,0.876 0.584,2.409 0,2.92 -1.387,4.526 -3.358,3.869 -6.935,6.351 -3.504,2.482 -8.03,2.482 -3.723,0 -5.621,-2.117 -1.898,-2.19 -1.898,-6.278 0,-2.044 1.022,-7.3 0.949,-4.599 0.949,-6.351 0,-1.168 -0.803,-1.168 -0.949,0 -2.701,2.482 -1.752,2.409 -3.504,6.424 -1.752,4.015 -2.847,8.468 -1.387,5.84 -6.862,5.84 -2.19,0 -2.92,-1.533 -0.657,-1.606 -0.657,-5.694 0,-2.336 0.073,-3.723 l 0.073,-5.84 q 0,-11.242 2.263,-23.433 2.336,-12.191 6.789,-20.44 4.526,-8.322 10.804,-8.322 3.358,0 5.402,2.92 2.117,2.847 2.117,7.446 0,7.373 -4.307,15.33 -4.307,7.884 -14.016,18.469 -0.219,3.796 -0.219,7.811 2.409,-6.205 5.329,-10.074 2.993,-3.942 5.84,-5.621 2.92,-1.679 5.329,-1.679 4.745,0 4.745,4.745 0,2.847 -1.606,10.293 -1.387,6.351 -1.387,8.395 0,2.92 2.117,2.92 1.46,0 3.431,-1.752 2.044,-1.825 5.402,-5.84 0.876,-1.022 1.971,-1.022 z m -21.681,-45.114 q -1.314,0 -2.92,3.796 -1.606,3.723 -3.139,10.147 -1.46,6.351 -2.409,13.87 4.526,-5.329 7.446,-11.607 2.993,-6.278 2.993,-11.388 0,-2.336 -0.511,-3.577 -0.511,-1.241 -1.46,-1.241 z m 27.375055,22.557 q -3.065998,0 -4.598998,-1.387 -1.533,-1.46 -1.533,-4.015 0,-2.555 1.971,-4.234 2.044,-1.752 5.036998,-1.752 2.701,0 4.38,1.314 1.679,1.314 1.679,3.723 0,2.92 -1.898,4.672 -1.898,1.679 -5.037,1.679 z m -0.584,39.201 q -4.744998,0 -6.934998,-3.358 -2.117,-3.358 -2.117,-8.906 0,-3.285 0.803,-8.395 0.876,-5.183 2.19,-9.636 0.657,-2.336 1.752,-3.212 1.095,-0.876 3.504,-0.876 3.722998,0 3.722998,2.482 0,1.825 -1.387,8.468 -1.751998,8.03 -1.751998,10.877 0,2.19 0.583998,3.358 0.584,1.168 1.971,1.168 1.314,0 3.285,-1.825 1.971,-1.825 5.256,-5.767 0.876,-1.022 1.971,-1.022 0.949,0 1.46,0.876 0.584,0.876 0.584,2.409 0,2.92 -1.387,4.526 -7.227,8.833 -13.505,8.833 z m 14.16203,0 q -2.774,0 -3.942,-2.92 -1.095,-2.92 -1.095,-9.344 0,-9.49 2.701,-18.031 0.657,-2.117 2.117,-3.066 1.533,-1.022 4.234,-1.022 1.46,0 2.044,0.365 0.584,0.365 0.584,1.387 0,1.168 -1.095,5.256 -0.73,2.92 -1.168,5.11 -0.438,2.19 -0.73,5.402 2.409,-6.278 5.402,-10.22 2.993,-3.942 5.84,-5.621 2.92,-1.679 5.329,-1.679 4.745,0 4.745,4.745 0,2.847 -1.606,10.293 -1.387,6.351 -1.387,8.395 0,2.92 2.117,2.92 1.46,0 3.431,-1.752 2.044,-1.825 5.402,-5.84 0.876,-1.022 1.971,-1.022 0.949,0 1.46,0.876 0.584,0.876 0.584,2.409 0,2.92 -1.387,4.526 -3.139,3.869 -6.789,6.351 -3.577,2.482 -8.176,2.482 -3.723,0 -5.621,-2.117 -1.898,-2.19 -1.898,-6.278 0,-2.044 1.022,-7.3 0.949,-4.599 0.949,-6.351 0,-1.168 -0.803,-1.168 -0.949,0 -2.701,2.482 -1.679,2.409 -3.504,6.424 -1.752,4.015 -2.847,8.468 -0.803,3.431 -1.898,4.672 -1.022,1.168 -3.285,1.168 z m 62.05001,-7.957 q 2.993,0.584 2.993,3.285 0,1.825 -1.679,3.285 -1.606,1.387 -4.672,1.387 -5.256,0 -8.614,-3.212 -3.285,-3.285 -3.285,-8.541 0,-2.847 2.92,-4.088 3.212,-1.387 4.599,-2.92 1.387,-1.606 1.387,-3.869 0,-1.314 -0.584,-1.971 -0.511,-0.657 -1.314,-0.657 -1.971,0 -4.38,2.847 -2.336,2.847 -4.38,7.373 -2.044,4.453 -3.212,9.198 -0.803,3.431 -1.898,4.672 -1.022,1.168 -3.285,1.168 -2.263,0 -3.358,-1.606 -1.022,-1.679 -1.387,-5.11 -0.365,-3.431 -0.365,-10.074 0,-11.242 2.263,-23.433 2.336,-12.191 6.789,-20.44 4.526,-8.322 10.804,-8.322 3.358,0 5.402,2.92 2.117,2.847 2.117,7.446 0,7.373 -4.307,15.33 -4.307,7.884 -14.016,18.469 -0.219,3.796 -0.219,7.811 3.504,-9.125 8.03,-13.213 4.526,-4.161 8.468,-4.161 3.65,0 5.84,2.482 2.263,2.482 2.263,6.132 0,4.015 -2.044,7.373 -2.044,3.358 -7.008,5.986 0.438,2.19 1.752,3.066 1.387,0.803 4.38,1.387 z m -12.191,-53.801 q -1.314,0 -2.92,3.796 -1.606,3.723 -3.139,10.147 -1.46,6.351 -2.409,13.87 4.526,-5.329 7.446,-11.607 2.993,-6.278 2.993,-11.388 0,-2.336 -0.511,-3.577 -0.511,-1.241 -1.46,-1.241 z m 57.52396,61.758 q -4.234,0 -9.563,-0.73 -2.92,-0.365 -4.015,-1.533 -1.095,-1.168 -0.949,-3.796 0.511,-7.227 2.409,-17.812 1.898,-10.658 4.599,-20.513 0.511,-1.825 2.044,-2.555 1.533,-0.73 4.015,-0.73 4.453,0 4.453,2.482 0,1.022 -0.438,2.336 -1.898,5.84 -3.796,15.695 -1.898,9.782 -2.701,18.688 2.19,0.219 4.964,0.219 12.775,0 19.053,-7.738 6.351,-7.738 6.351,-20.659 0,-8.687 -4.964,-13.432 -4.964,-4.745 -14.016,-4.745 -5.84,0 -11.607,1.825 -5.694,1.825 -10.293,4.818 -0.949,0.657 -2.044,0.657 -1.241,0 -1.971,-1.022 -0.73,-1.095 -0.73,-2.628 0,-1.752 0.584,-2.847 0.584,-1.168 1.971,-2.117 5.037,-3.431 11.826,-5.183 6.789,-1.825 13.067,-1.825 8.906,0 15.403,3.139 6.497,3.066 10.001,9.052 3.504,5.986 3.504,14.454 0,11.023 -4.38,19.272 -4.38,8.176 -12.775,12.702 -8.395,4.526 -20.002,4.526 z m 74.60603,-16.644 q 0.949,0 1.46,0.876 0.584,0.876 0.584,2.409 0,2.92 -1.387,4.526 -2.701,3.285 -7.665,6.059 -4.891,2.774 -10.512,2.774 -7.665,0 -11.899,-4.161 -4.234,-4.161 -4.234,-11.388 0,-5.037 2.117,-9.344 2.117,-4.38 5.84,-6.935 3.796,-2.555 8.541,-2.555 4.234,0 6.789,2.555 2.555,2.482 2.555,6.789 0,5.037 -3.65,8.687 -3.577,3.577 -12.191,5.694 1.825,3.358 6.935,3.358 3.285,0 7.446,-2.263 4.234,-2.336 7.3,-6.059 0.876,-1.022 1.971,-1.022 z m -18.396,-10.585 q -2.701,0 -4.599,3.139 -1.825,3.139 -1.825,7.592 v 0.146 q 4.307,-1.022 6.789,-3.066 2.482,-2.044 2.482,-4.745 0,-1.387 -0.803,-2.19 -0.73,-0.876 -2.044,-0.876 z m 47.08497,10.585 q 0.949,0 1.46,0.876 0.584,0.876 0.584,2.409 0,2.92 -1.387,4.526 -2.701,3.285 -7.665,6.059 -4.891,2.774 -10.512,2.774 -7.665,0 -11.899,-4.161 -4.234,-4.161 -4.234,-11.388 0,-5.037 2.117,-9.344 2.117,-4.38 5.84,-6.935 3.796,-2.555 8.541,-2.555 4.234,0 6.789,2.555 2.555,2.482 2.555,6.789 0,5.037 -3.65,8.687 -3.577,3.577 -12.191,5.694 1.825,3.358 6.935,3.358 3.285,0 7.446,-2.263 4.234,-2.336 7.3,-6.059 0.876,-1.022 1.971,-1.022 z m -18.396,-10.585 q -2.701,0 -4.599,3.139 -1.825,3.139 -1.825,7.592 v 0.146 q 4.307,-1.022 6.789,-3.066 2.482,-2.044 2.482,-4.745 0,-1.387 -0.803,-2.19 -0.73,-0.876 -2.044,-0.876 z m 44.89501,4.599 q 0,5.767 -2.701,10.95 -2.628,5.11 -7.081,8.322 -4.38,3.212 -9.417,3.358 -0.949,14.089 -4.307,23.506 -3.358,9.49 -9.855,9.49 -3.942,0 -5.84,-2.847 -1.898,-2.847 -1.898,-7.884 0,-7.154 3.285,-16.717 3.285,-9.49 10.147,-20.951 0,-10.658 -0.146,-14.819 -0.073,-2.117 1.679,-3.358 1.752,-1.241 4.38,-1.241 1.533,0 2.19,0.657 0.73,0.584 0.803,2.409 0,1.825 0.073,2.701 2.336,-2.92 4.599,-4.161 2.263,-1.314 4.818,-1.314 4.088,0 6.643,3.285 2.628,3.285 2.628,8.614 z m -18.834,15.622 q 2.628,-0.584 4.818,-2.847 2.263,-2.336 3.577,-5.694 1.314,-3.431 1.314,-7.154 0,-2.19 -0.876,-3.285 -0.876,-1.168 -2.336,-1.168 -2.628,0 -6.351,5.548 -0.073,3.212 -0.073,9.417 0,3.358 -0.073,5.183 z m -13.943,32.85 q 1.971,0 3.285,-8.614 1.314,-8.541 1.679,-21.316 -3.139,7.3 -4.964,13.943 -1.825,6.643 -1.825,11.169 0,2.336 0.584,3.577 0.511,1.241 1.241,1.241 z m 38.39806,-14.673 q -1.606,0 -2.555,-0.73 -0.949,-0.73 -0.949,-2.336 0,-0.657 0.219,-1.533 0.803,-3.358 1.168,-6.205 0.438,-2.847 0.438,-6.351 0,-3.65 1.679,-5.621 1.752,-1.971 4.453,-1.971 2.628,0 3.942,1.46 1.387,1.387 1.387,3.796 0,2.555 -1.533,6.789 -1.533,4.234 -3.723,8.249 -1.46,2.701 -2.336,3.577 -0.803,0.876 -2.19,0.876 z m 129.64795,-43.07 q 1.679,0 2.409,0.73 0.803,0.73 0.803,1.898 0,1.898 -1.168,3.358 -1.095,1.46 -3.504,1.533 -5.767,0.073 -10.366,-0.876 -5.11,10.877 -12.337,18.104 -7.154,7.154 -14.162,7.154 -6.424,0 -9.636,-6.789 -3.212,-6.862 -3.65,-18.323 -4.38,12.702 -9.928,18.907 -5.475,6.205 -11.68,6.205 -7.008,0 -10.585,-8.687 -3.577,-8.76 -3.577,-23.506 0,-10.731 1.898,-23.579 0.511,-3.65 1.825,-5.037 1.387,-1.46 4.307,-1.46 2.19,0 3.358,0.949 1.241,0.949 1.241,3.504 0,0.511 -0.146,1.971 -2.19,14.965 -2.19,25.477 0,9.782 1.679,15.111 1.679,5.329 4.526,5.329 2.555,0 6.132,-5.329 3.65,-5.402 7.227,-15.914 3.577,-10.585 6.059,-25.185 0.584,-3.358 2.117,-4.599 1.606,-1.314 4.307,-1.314 2.263,0 3.285,1.022 1.095,0.949 1.095,2.92 0,1.168 -0.146,1.825 -2.044,11.899 -2.044,23.798 0,8.103 0.511,12.921 0.584,4.818 2.117,7.373 1.606,2.482 4.599,2.482 3.504,0 7.811,-5.256 4.307,-5.329 7.884,-13.213 -4.453,-2.774 -6.716,-7.154 -2.263,-4.453 -2.263,-10.22 0,-5.767 1.752,-9.709 1.825,-4.015 4.891,-5.986 3.139,-1.971 6.935,-1.971 4.672,0 7.373,3.358 2.774,3.358 2.774,9.198 0,8.249 -3.577,18.323 3.723,0.657 8.76,0.657 z m -21.535,-14.381 q 0,7.154 4.599,10.585 2.847,-8.176 2.847,-13.505 0,-3.066 -0.803,-4.453 -0.803,-1.46 -2.19,-1.46 -1.971,0 -3.212,2.336 -1.241,2.263 -1.241,6.497 z m 22.84907,46.282 q -2.774,0 -3.942,-2.92 -1.095,-2.92 -1.095,-9.344 0,-9.49 2.701,-18.031 0.657,-2.117 2.117,-3.066 1.533,-1.022 4.234,-1.022 1.46,0 2.044,0.365 0.584,0.365 0.584,1.387 0,1.168 -1.095,5.256 -0.73,2.92 -1.168,5.11 -0.438,2.19 -0.73,5.402 2.409,-6.278 5.402,-10.22 2.993,-3.942 5.84,-5.621 2.92,-1.679 5.329,-1.679 4.745,0 4.745,4.745 0,0.949 -0.657,4.599 -0.584,2.92 -0.584,3.65 0,2.555 1.825,2.555 2.044,0 5.256,-3.212 0.949,-0.949 1.971,-0.949 0.949,0 1.46,0.876 0.584,0.803 0.584,2.19 0,2.701 -1.46,4.234 -2.044,2.117 -4.818,3.65 -2.701,1.46 -5.767,1.46 -3.869,0 -5.913,-1.971 -1.971,-1.971 -1.971,-5.329 0,-1.095 0.219,-2.19 0.146,-1.46 0.146,-1.971 0,-1.168 -0.803,-1.168 -1.095,0 -2.92,2.482 -1.752,2.409 -3.504,6.424 -1.752,4.015 -2.847,8.468 -0.803,3.431 -1.898,4.672 -1.022,1.168 -3.285,1.168 z m 37.59496,-39.201 q -3.066,0 -4.599,-1.387 -1.533,-1.46 -1.533,-4.015 0,-2.555 1.971,-4.234 2.044,-1.752 5.037,-1.752 2.701,0 4.38,1.314 1.679,1.314 1.679,3.723 0,2.92 -1.898,4.672 -1.898,1.679 -5.037,1.679 z m -0.584,39.201 q -4.745,0 -6.935,-3.358 -2.117,-3.358 -2.117,-8.906 0,-3.285 0.803,-8.395 0.876,-5.183 2.19,-9.636 0.657,-2.336 1.752,-3.212 1.095,-0.876 3.504,-0.876 3.723,0 3.723,2.482 0,1.825 -1.387,8.468 -1.752,8.03 -1.752,10.877 0,2.19 0.584,3.358 0.584,1.168 1.971,1.168 1.314,0 3.285,-1.825 1.971,-1.825 5.256,-5.767 0.876,-1.022 1.971,-1.022 0.949,0 1.46,0.876 0.584,0.876 0.584,2.409 0,2.92 -1.387,4.526 -7.227,8.833 -13.505,8.833 z m 41.53707,-16.644 q 0.949,0 1.46,0.876 0.584,0.876 0.584,2.409 0,2.92 -1.387,4.526 -3.139,3.869 -6.862,6.351 -3.723,2.482 -8.541,2.482 -14.892,0 -14.892,-20.951 0,-3.212 0.219,-6.497 h -2.847 q -2.19,0 -2.993,-0.803 -0.73,-0.803 -0.73,-2.555 0,-4.088 3.285,-4.088 h 4.161 q 1.241,-8.03 3.796,-14.673 2.555,-6.643 6.132,-10.585 3.65,-3.942 7.811,-3.942 3.066,0 4.818,2.701 1.752,2.701 1.752,6.789 0,11.315 -9.49,19.71 h 8.176 q 1.168,0 1.679,0.511 0.511,0.511 0.511,1.898 0,5.037 -8.249,5.037 h -8.906 q -0.146,3.65 -0.146,5.694 0,7.592 1.752,10.658 1.825,3.066 5.694,3.066 3.139,0 5.548,-1.898 2.409,-1.898 5.694,-5.694 0.876,-1.022 1.971,-1.022 z m -12.775,-40.442 q -1.095,0 -2.482,2.774 -1.314,2.701 -2.555,7.592 -1.168,4.818 -1.971,10.731 4.307,-3.723 6.424,-8.322 2.19,-4.672 2.19,-8.468 0,-4.307 -1.606,-4.307 z m 35.03997,42.632 q 0.949,0 1.46,0.876 0.584,0.876 0.584,2.409 0,2.628 -1.241,4.526 -2.044,3.139 -5.402,4.891 -3.285,1.752 -7.884,1.752 -7.008,0 -10.877,-4.161 -3.869,-4.234 -3.869,-11.388 0,-5.037 2.117,-9.344 2.117,-4.38 5.84,-6.935 3.796,-2.555 8.541,-2.555 4.234,0 6.789,2.555 2.555,2.482 2.555,6.789 0,5.037 -3.65,8.687 -3.577,3.577 -12.264,5.694 1.752,3.358 5.913,3.358 2.993,0 4.891,-1.387 1.971,-1.387 4.526,-4.672 0.876,-1.095 1.971,-1.095 z m -11.972,-12.775 q -2.701,0 -4.599,3.139 -1.825,3.139 -1.825,7.592 v 0.146 q 4.307,-1.022 6.789,-3.066 2.482,-2.044 2.482,-4.745 0,-1.387 -0.803,-2.19 -0.73,-0.876 -2.044,-0.876 z m 86.7969,13.578 q 1.095,-0.438 1.825,-0.438 1.168,0 1.752,0.876 0.584,0.876 0.584,2.263 0,2.19 -1.095,3.723 -1.022,1.533 -3.577,2.774 -4.307,2.044 -11.169,3.285 -6.862,1.168 -13.505,1.168 -9.198,0 -15.403,-2.044 -6.205,-2.117 -9.271,-5.767 -2.993,-3.65 -2.993,-8.249 0,-6.278 4.015,-10.658 4.088,-4.453 11.972,-6.424 -4.307,-1.241 -6.643,-4.38 -2.263,-3.139 -2.263,-7.008 0,-5.256 3.285,-9.271 3.358,-4.088 8.979,-6.278 5.621,-2.19 12.337,-2.19 9.052,0 13.578,3.942 4.526,3.869 4.526,10.074 0,4.307 -1.606,7.008 -1.533,2.628 -4.453,2.628 -2.044,0 -3.212,-0.876 -1.168,-0.949 -1.168,-2.774 0,-1.241 0.365,-2.701 0.365,-2.409 0.365,-3.285 0,-2.628 -1.971,-4.234 -1.971,-1.679 -6.57,-1.679 -6.205,0 -9.928,2.628 -3.723,2.628 -3.723,7.081 0,3.431 2.774,5.694 2.847,2.19 9.198,2.409 1.606,0.073 2.263,0.73 0.657,0.657 0.657,2.19 0,4.818 -4.38,4.891 -6.059,0.146 -10.074,1.679 -3.942,1.533 -5.767,3.942 -1.752,2.336 -1.752,5.037 0,4.526 4.234,6.862 4.234,2.263 13.432,2.263 6.059,0 12.775,-1.387 6.789,-1.46 11.607,-3.504 z m 5.98604,13.651 q -4.526,0 -7.227,-3.285 -2.701,-3.285 -2.701,-8.614 0,-5.84 2.701,-11.023 2.701,-5.256 7.154,-8.395 4.526,-3.212 9.563,-3.212 1.606,0 2.117,0.657 0.584,0.584 0.949,2.19 1.533,-0.292 3.212,-0.292 3.577,0 3.577,2.555 0,1.533 -1.095,7.3 -1.679,8.395 -1.679,11.68 0,1.095 0.511,1.752 0.584,0.657 1.46,0.657 1.387,0 3.358,-1.752 1.971,-1.825 5.329,-5.84 0.876,-1.022 1.971,-1.022 0.949,0 1.46,0.876 0.584,0.876 0.584,2.409 0,2.92 -1.387,4.526 -2.993,3.723 -6.351,6.278 -3.358,2.555 -6.497,2.555 -2.409,0 -4.453,-1.606 -1.971,-1.679 -2.993,-4.526 -3.796,6.132 -9.563,6.132 z m 2.628,-7.373 q 1.606,0 3.066,-1.898 1.46,-1.898 2.117,-5.037 l 2.701,-13.432 q -3.066,0.073 -5.694,2.336 -2.555,2.19 -4.088,5.84 -1.533,3.65 -1.533,7.738 0,2.263 0.876,3.358 0.949,1.095 2.555,1.095 z m 36.28094,8.979 q -3.796,0 -5.84,-1.752 -1.971,-1.752 -1.971,-3.942 0,-1.898 1.387,-3.285 1.387,-1.387 4.088,-1.387 0.949,0 2.19,0.219 1.314,0.146 1.971,0.219 -0.073,-1.898 -0.876,-3.577 -0.73,-1.679 -1.898,-3.212 -1.168,-1.606 -2.19,-2.774 -2.263,4.307 -4.526,7.154 -2.19,2.847 -4.818,5.402 -1.314,1.314 -2.774,1.314 -1.168,0 -1.898,-0.803 -0.73,-0.876 -0.73,-2.117 0,-1.46 1.022,-2.701 l 0.949,-1.168 q 4.015,-4.964 6.059,-8.176 1.241,-2.117 2.92,-5.621 1.679,-3.577 3.285,-7.373 1.387,-3.212 5.767,-3.212 2.044,0 2.847,0.365 0.803,0.365 0.803,1.168 0,0.438 -0.292,1.387 -0.292,0.949 -0.803,1.898 -1.314,2.628 -1.314,4.453 0,1.095 0.73,2.409 0.803,1.314 2.409,3.285 2.336,3.066 3.504,5.256 1.241,2.117 1.241,4.672 0,0.73 -0.146,2.044 3.577,-1.387 8.395,-7.373 0.876,-1.022 1.971,-1.022 0.949,0 1.46,0.876 0.584,0.876 0.584,2.409 0,2.774 -1.387,4.526 -3.65,4.526 -7.008,6.205 -3.285,1.606 -8.176,1.752 -2.92,2.482 -6.935,2.482 z m 43.14302,-35.989 q 1.679,0 2.336,0.438 0.657,0.438 0.657,1.46 0,1.752 -1.898,12.483 -1.679,10.293 -1.971,12.191 -2.701,18.761 -7.446,29.711 -4.745,10.95 -12.629,10.95 -3.723,0 -6.059,-2.336 -2.336,-2.263 -2.336,-5.986 0,-3.431 1.533,-7.008 1.606,-3.577 5.84,-8.249 4.307,-4.599 12.118,-10.585 l 0.219,-1.679 q 0.511,-2.701 1.168,-7.738 -1.46,5.256 -4.088,8.03 -2.628,2.701 -5.548,2.701 -3.285,0 -5.402,-2.993 -2.044,-3.066 -2.044,-7.592 0,-5.475 0.73,-10.001 0.73,-4.599 2.409,-9.709 0.73,-2.19 2.044,-3.139 1.314,-0.949 4.161,-0.949 1.606,0 2.19,0.511 0.657,0.511 0.657,1.533 0,0.584 -0.803,3.942 -0.73,2.701 -1.168,4.891 -0.584,2.993 -1.022,5.767 -0.438,2.701 -0.438,4.453 0,2.774 1.533,2.774 1.095,0 2.701,-2.19 1.679,-2.19 3.504,-6.643 1.898,-4.453 3.65,-10.95 0.584,-2.19 1.752,-3.139 1.241,-0.949 3.65,-0.949 z m -20.148,60.152 q 1.825,0 4.088,-4.234 2.263,-4.234 4.526,-14.089 -5.621,4.745 -8.176,8.614 -2.482,3.942 -2.482,6.862 0,1.241 0.438,2.044 0.511,0.803 1.606,0.803 z M 763.87199,0.365 q -3.212,0 -4.891,-1.752 -1.606,-1.752 -1.606,-4.599 0,-3.285 1.825,-5.256 1.898,-1.971 5.256,-1.971 3.212,0 4.818,1.606 1.679,1.533 1.679,4.599 0,3.358 -1.898,5.402 -1.898,1.971 -5.183,1.971 z"
       id="text11"
       style="font-size:73px;font-family:Pacifico, Pacifico_MSFontService, sans-serif"
       transform="translate(2299.42,471)"
       aria-label="Think Deep, Write Easy." /><path
       d="m 1939.37,88.7234 -83.58,-31.1425 c -11.69,-4.3547 -24.63,1.6122 -28.91,13.3274 0,0.0016 0,0.0032 0,0.0048 l -84.42,231.2199 c -2.08,5.62 -1.82,11.854 0.72,17.306 l 26.49,57.465 c 5.24,11.363 18.64,16.354 29.93,11.148 l 57.1,-26.329 c 5.43,-2.484 9.63,-7.056 11.67,-12.694 l 84.42,-231.206 c 4.28,-11.716 -1.73,-24.743 -13.42,-29.0978 0,-6e-4 0,-0.0012 0,-0.0018 z m -92.16,252.4256 -57.09,26.329 -26.5,-57.465 60.24,-165.001 83.6,31.137 z m 67.99,-186.219 -83.59,-31.124 16.43,-45 83.59,31.124 z"
       fill-rule="evenodd"
       id="path4" /><path
       d="m 13.6426,0 h 29.3261 l 37.492,-110.322 H 93.2439 L 75.7744,-155.01 84.776,0 h 21.832 l 114.401,-155.01 -47.843,44.688 h 12.783 L 148.457,0 h 29.326 l 54.139,-159.307 h -35.729 l -87.747,118.4867 h 2.237 L 103.469,-159.307 H 67.7815 Z M 200.986,0 h 29.326 l 37.492,-110.322 h 12.784 L 263.118,-155.01 272.12,0 h 21.832 l 114.4,-155.01 -47.843,44.688 h 12.784 L 335.801,0 h 29.326 l 54.139,-159.307 h -35.73 l -87.747,118.4867 h 2.238 l -7.214,-118.4867 h -35.688 z m 230.513,2.25586 c 9.656,0 18.766,-1.550345 27.329,-4.65103 8.563,-3.10069 15.998,-7.531 22.304,-13.29093 6.306,-5.7599 10.756,-12.4551 13.349,-20.0854 l 0.037,-0.1074 c 2.985,-8.7829 2.676,-15.8142 -0.925,-21.0941 -3.6,-5.2799 -10.54,-9.0579 -20.819,-11.3339 l -18.485,-4.7534 c -3.807,-0.9791 -6.562,-2.0195 -8.265,-3.1211 -1.703,-1.1016 -2.751,-2.3415 -3.145,-3.7195 -0.393,-1.378 -0.286,-2.9605 0.322,-4.7475 l 0.037,-0.1075 c 0.792,-2.3319 2.119,-4.3592 3.982,-6.0819 1.862,-1.7226 4.25,-3.0912 7.164,-4.1055 2.913,-1.0144 6.182,-1.5215 9.806,-1.5215 5.69,0 9.673,1.3156 11.949,3.9469 2.276,2.6313 2.983,5.9527 2.122,9.9642 l -0.59,2.7393 h 29.092 l 1.064,-3.5752 c 2.041,-6.8862 2.061,-13.1373 0.062,-18.7534 -2,-5.616 -5.982,-10.084 -11.947,-13.404 -5.964,-3.32 -13.823,-4.98 -23.574,-4.98 -9.363,0 -18.171,1.539 -26.424,4.616 -8.253,3.078 -15.35,7.404 -21.29,12.977 -5.941,5.574 -10.169,12.0629 -12.684,19.4672 l -0.037,0.1074 c -2.06,6.0604 -2.558,11.3876 -1.494,15.9816 1.064,4.5939 3.643,8.3959 7.736,11.406 4.093,3.01 9.169,5.2625 15.227,6.7575 l 17.871,4.2834 c 5.694,1.4133 9.205,3.0109 10.533,4.7929 1.327,1.782 1.531,4.0252 0.612,6.7298 l -0.036,0.1074 c -0.776,2.285 -2.156,4.2893 -4.14,6.0131 -1.983,1.7238 -4.522,3.0683 -7.616,4.0334 -3.094,0.9651 -6.708,1.4477 -10.843,1.4477 -6.335,0 -10.754,-1.201 -13.256,-3.6029 -2.502,-2.4019 -3.449,-5.8167 -2.84,-10.2445 l 0.321,-2.6956 h -30.272 l -1.042,3.3838 c -1.612,7.4177 -1.276,13.9469 1.009,19.5877 2.285,5.64076 6.581,9.98994 12.887,13.04755 6.307,3.057606 14.609,4.58641 24.909,4.58641 z"
       transform="translate(1890.28,372)"
       id="path5" /><path
       d="m 30.6975,-51.1328 h 73.6915 l 9.492,-27.9297 H 40.1892 Z"
       transform="translate(2374.4,372)"
       id="path6" /><path
       d="M 13.6426,0 H 116.016 l 9.382,-27.6074 H 55.1443 L 99.9007,-159.307 H 67.7815 Z M 164.091,1.93359 c 5.319,0 10.576,-0.82832 15.771,-2.484966 5.196,-1.656644 10.157,-4.049584 14.883,-7.178804 4.727,-3.12922 8.591,-6.38912 11.592,-9.77962 h -2.874 L 197.513,0 h 31.045 l 27.344,-80.459 c 2.728,-8.0298 3.073,-15.0637 1.036,-21.102 -2.037,-6.038 -6.154,-10.708 -12.352,-14.012 -6.197,-3.303 -14.214,-4.954 -24.051,-4.954 -9.874,0 -19.02,1.614 -27.438,4.842 -8.418,3.228 -15.665,7.66 -21.74,13.295 -6.074,5.6353 -10.632,12.0303 -13.672,19.1851 l -1.333,3.6053 h 28.668 l 1.486,-2.6453 c 2.074,-3.7038 5.204,-6.7491 9.389,-9.1359 4.185,-2.3867 9.179,-3.5801 14.984,-3.5801 6.208,0 10.41,1.4726 12.607,4.4177 2.198,2.9451 2.435,6.9511 0.713,12.0178 l -11.608,34.1602 c -1.383,4.0675 -3.707,7.7335 -6.971,10.9981 -3.264,3.2646 -7.069,5.8464 -11.414,7.7453 -4.345,1.8989 -8.934,2.8484 -13.768,2.8484 -5.363,0 -9.176,-1.1543 -11.44,-3.4627 -2.263,-2.3085 -2.718,-5.4511 -1.367,-9.428 l 0.037,-0.1074 c 1.3,-3.8258 3.876,-6.9206 7.728,-9.2844 3.851,-2.3639 9.071,-3.7561 15.658,-4.1769 l 42.219,-2.5714 7.439,-21.8872 -46.821,2.7191 c -9.646,0.5908 -18.34,2.365 -26.084,5.3224 -7.744,2.9575 -14.315,7.0227 -19.714,12.1958 -5.398,5.173 -9.331,11.3895 -11.799,18.6494 l -0.072,0.2149 c -2.436,7.1648 -2.896,13.5136 -1.38,19.0464 1.517,5.5327 4.795,9.82878 9.835,12.88807 5.041,3.059281 11.512,4.58892 19.414,4.58892 z m 146.63,0.32227 c 10.159,0 19.794,-2.501476 28.904,-7.50443 9.111,-5.00293 17.225,-12.11883 24.343,-21.34753 7.118,-9.2288 12.789,-20.0574 17.013,-32.4859 l 0.035,-0.1074 c 4.244,-12.4834 5.918,-23.3123 5.024,-32.4868 -0.894,-9.1748 -4.192,-16.2768 -9.894,-21.3068 -5.703,-5.029 -13.53,-7.544 -23.482,-7.544 -5.594,0 -11.139,0.931 -16.635,2.793 -5.496,1.862 -10.683,4.514 -15.561,7.957 -4.878,3.443 -8.965,7.165 -12.262,11.1637 h 3.065 l 20.625,-60.6937 H 300.744 L 246.605,0 h 31.152 l 6.571,-19.3359 h -3.088 c 0.6,3.9343 2.15,7.5947 4.652,10.98133 2.501,3.38659 5.828,6.00164 9.98,7.845155 4.152,1.843515 9.101,2.765275 14.849,2.765275 z m 1.141,-26.74806 c -5.022,0 -9,-1.3772 -11.933,-4.1315 -2.934,-2.7544 -4.646,-6.7164 -5.139,-11.8861 -0.492,-5.1697 0.488,-11.3604 2.939,-18.5722 l 0.035,-0.1074 c 2.442,-7.1839 5.683,-13.352 9.725,-18.5043 4.041,-5.1523 8.444,-9.1034 13.208,-11.8533 4.765,-2.7499 9.657,-4.1249 14.675,-4.1249 5.222,0 9.278,1.3652 12.167,4.0955 2.888,2.7303 4.524,6.6652 4.908,11.8046 0.384,5.1395 -0.656,11.3336 -3.12,18.5824 l -0.035,0.1074 c -2.458,7.2275 -5.614,13.4378 -9.469,18.631 -3.854,5.1931 -8.164,9.1512 -12.928,11.8743 -4.764,2.723 -9.775,4.0845 -15.033,4.0845 z"
       transform="translate(2470.65,372)"
       id="path7" /><path
       d="m 292.16,-99.22 c 3.992,0 6.97,0.935 8.934,2.805 1.964,1.87 2.946,4.235 2.946,7.095 0,4.3152 -1.319,8.1755 -3.958,11.5809 -2.639,3.4055 -6.746,5.1918 -12.322,5.3591 -11.759,0.1467 -21.762,-0.7333 -30.009,-2.64 -9.905,21.2896 -22.222,39.2987 -36.95,54.0272 C 206.072,-6.26427 191.359,1.1 176.66,1.1 c -13.849,0 -24.128,-7.12938 -30.838,-21.3881 -6.71,-14.2588 -10.362,-32.3561 -10.955,-54.2919 -6.353,24.8119 -15.223,43.6282 -26.612,56.4489 C 96.867,-5.31036 84.6152,1.1 71.5,1.1 56.4117,1.1 45.1596,-7.94177 37.7437,-26.0253 30.3279,-44.1088 26.62,-68.1404 26.62,-98.12 c 0,-21.746 1.9273,-45.661 5.7819,-71.747 1.0381,-7.428 3.096,-12.763 6.1737,-16.007 3.0777,-3.244 7.8925,-4.866 14.4444,-4.866 4.9271,0 8.8355,1.138 11.7253,3.415 2.8898,2.277 4.3347,6.272 4.3347,11.985 0,0.958 -0.1684,3.127 -0.5053,6.507 -4.3565,29.767 -6.5347,55.171 -6.5347,76.213 0,19.4792 1.5961,34.2856 4.7884,44.4194 C 70.0207,-38.0669 73.9246,-33 78.54,-33 c 4.2992,0 9.9498,-5.1992 16.952,-15.5977 7.002,-10.3984 14.068,-26.11 21.197,-47.135 7.13,-21.0253 13.187,-46.1973 18.171,-75.5163 1.249,-7.185 3.657,-12.229 7.226,-15.134 3.568,-2.905 8.346,-4.357 14.334,-4.357 5.133,0 8.983,1.195 11.55,3.585 2.567,2.391 3.85,5.815 3.85,10.275 0,2.461 -0.147,4.353 -0.44,5.675 -4.107,23.909 -6.16,47.758 -6.16,71.545 0,16.3373 0.537,29.2325 1.61,38.6856 1.074,9.4532 3.044,16.4788 5.91,21.0771 2.865,4.5982 6.885,6.8973 12.06,6.8973 6.297,0 13.63,-5.1413 21.997,-15.4241 8.366,-10.2827 16.068,-22.7413 23.103,-37.3759 -8.601,-5.1127 -15.261,-12.2736 -19.98,-21.483 -4.72,-9.209 -7.08,-19.794 -7.08,-31.757 0,-11.869 1.861,-21.943 5.582,-30.222 3.722,-8.28 8.883,-14.516 15.483,-18.709 6.6,-4.193 13.952,-6.289 22.055,-6.289 10.106,0 18.096,3.603 23.97,10.809 5.873,7.206 8.81,16.877 8.81,29.011 0,16.819 -3.593,34.722 -10.78,53.711 6.144,1.006 14.211,1.509 24.2,1.509 z m -62.7,-41.36 c 0,13.766 3.507,23.666 10.522,29.7 5.012,-15.196 7.518,-28.029 7.518,-38.5 0,-5.752 -0.657,-9.793 -1.971,-12.124 -1.315,-2.331 -2.931,-3.496 -4.849,-3.496 -3.085,0 -5.726,2.036 -7.923,6.107 -2.198,4.071 -3.297,10.175 -3.297,18.313 z M 296.505,1.1 c -6.593,0 -11.138,-3.22151 -13.635,-9.66453 -2.497,-6.44307 -3.745,-16.27487 -3.745,-29.49547 0,-19.3142 2.736,-37.6177 8.209,-54.9106 1.448,-4.659 3.878,-8.1124 7.291,-10.3594 3.412,-2.246 8.072,-3.37 13.98,-3.37 3.36,0 5.886,0.529 7.58,1.588 1.693,1.059 2.54,2.95 2.54,5.672 0,2.4796 -1.1,7.496 -3.3,15.0494 -1.577,7.0125 -2.785,12.6196 -3.625,16.8214 -0.84,4.2018 -1.538,8.6848 -2.095,13.4492 2.042,-11.7173 6.147,-21.6385 12.317,-29.7636 6.169,-8.1251 12.295,-13.9591 18.38,-17.5024 6.084,-3.543 11.765,-5.314 17.043,-5.314 11,0 16.5,5.427 16.5,16.28 0,1.9273 -0.706,6.8108 -2.118,14.6506 -1.081,5.4084 -1.622,8.8115 -1.622,10.2094 0,3.8133 1.1,5.72 3.3,5.72 3.444,0 8.197,-3.0307 14.259,-9.0922 2.298,-2.2985 4.805,-3.4478 7.521,-3.4478 2.718,0 4.791,1.0943 6.218,3.2828 1.428,2.1886 2.142,4.8343 2.142,7.9372 0,6.0248 -1.673,10.7938 -5.019,14.3069 -4.26,4.4114 -9.267,8.1898 -15.02,11.3351 -5.753,3.1453 -11.907,4.718 -18.461,4.718 -8.385,0 -14.808,-2.1903 -19.269,-6.5708 -4.461,-4.3805 -6.691,-10.2569 -6.691,-17.6292 0,-2.3329 0.221,-4.6062 0.663,-6.82 0.291,-2.9012 0.437,-4.8079 0.437,-5.72 0,-0.88 -0.073,-1.32 -0.22,-1.32 -1.467,0 -3.863,2.2739 -7.19,6.8217 -3.326,4.5478 -6.714,10.7749 -10.163,18.6811 -3.449,7.9063 -6.312,16.4886 -8.59,25.7469 -1.613,6.8887 -3.647,11.72931 -6.101,14.52171 C 305.566,-0.296198 301.728,1.1 296.505,1.1 Z m 113.46,-118.14 c -6.749,0 -11.882,-1.634 -15.401,-4.902 -3.519,-3.268 -5.279,-7.794 -5.279,-13.578 0,-5.692 2.239,-10.452 6.717,-14.279 4.478,-3.827 10.013,-5.741 16.603,-5.741 5.952,0 10.85,1.504 14.694,4.513 3.844,3.009 5.766,7.225 5.766,12.647 0,6.511 -2.134,11.695 -6.402,15.553 -4.268,3.858 -9.834,5.787 -16.698,5.787 z M 408.205,1.1 c -10.344,0 -17.844,-3.62943 -22.498,-10.88828 -4.654,-7.25882 -6.982,-16.68272 -6.982,-28.27172 0,-6.8062 0.845,-15.3857 2.534,-25.7383 1.689,-10.3526 3.945,-20.3127 6.768,-29.8804 1.272,-4.5238 3.207,-7.8253 5.806,-9.9033 2.599,-2.079 6.583,-3.118 11.952,-3.118 8.947,0 13.42,3.153 13.42,9.46 0,3.7675 -1.416,12.4346 -4.248,26.0013 -3.475,15.927 -5.212,26.6933 -5.212,32.2987 0,4.1433 0.454,7.1225 1.362,8.9375 0.907,1.815 2.287,2.7225 4.138,2.7225 2.033,0 4.891,-1.7044 8.573,-5.1133 3.683,-3.4088 8.76,-8.9965 15.232,-16.7629 2.333,-2.7225 4.958,-4.0838 7.875,-4.0838 2.746,0 4.825,1.1309 6.239,3.3928 1.414,2.2619 2.121,5.091 2.121,8.4872 0,6.4052 -1.544,11.3965 -4.633,14.9738 C 435.66,-8.06208 421.511,1.1 408.205,1.1 Z m 125.487,-54.34 c 2.746,0 4.826,1.1309 6.24,3.3928 1.413,2.2619 2.12,5.091 2.12,8.4872 0,6.4052 -1.546,11.3999 -4.64,14.9841 -6.49,7.9979 -13.605,14.5767 -21.344,19.73637 C 508.329,-1.47984 499.391,1.1 489.252,1.1 c -31.386,0 -47.08,-21.78 -47.08,-65.34 0,-6.5358 0.22,-12.3292 0.66,-17.38 h -6.38 c -5.062,0 -8.564,-1.0175 -10.506,-3.0525 -1.942,-2.035 -2.914,-5.1242 -2.914,-9.2675 0,-9.533 4.034,-14.3 12.1,-14.3 h 10.605 c 2.324,-15.047 6.096,-29.357 11.316,-42.929 5.221,-13.573 11.607,-24.477 19.158,-32.715 7.551,-8.237 15.858,-12.356 24.921,-12.356 6.974,0 12.384,2.965 16.231,8.896 3.846,5.931 5.769,13.159 5.769,21.684 0,23.386 -9.533,42.526 -28.6,57.42 h 22.44 c 2.986,0 5.2,0.72 6.64,2.16 1.44,1.441 2.16,3.801 2.16,7.08 0,11.5867 -9.02,17.38 -27.06,17.38 h -24.756 c -0.216,5.3533 -0.324,10.34 -0.324,14.96 0,14.9463 1.649,25.2461 4.947,30.8997 3.298,5.6535 8.396,8.4803 15.293,8.4803 5.757,0 10.928,-1.8058 15.512,-5.4175 4.585,-3.6117 10.146,-9.1953 16.684,-16.7509 2.166,-2.5277 4.707,-3.7916 7.624,-3.7916 z m -38.5,-117.7 c -1.29,0 -3.172,2.508 -5.646,7.523 -2.473,5.015 -4.911,12.362 -7.313,22.041 -2.402,9.679 -4.388,19.551 -5.961,29.616 5.927,-6.744 11.002,-14.663 15.225,-23.757 4.224,-9.093 6.335,-17.307 6.335,-24.643 0,-7.187 -0.88,-10.78 -2.64,-10.78 z m 125.011,117.7 c 2.745,0 4.825,1.1309 6.239,3.3928 1.414,2.2619 2.121,5.091 2.121,8.4872 0,6.4052 -1.542,11.3942 -4.627,14.9669 -5.642,6.8612 -13.555,13.1587 -23.738,18.89248 C 590.015,-1.76688 579.083,1.1 567.403,1.1 c -16.012,0 -28.485,-4.39026 -37.419,-13.1708 -8.934,-8.7805 -13.401,-20.7436 -13.401,-35.8892 0,-10.4156 2.188,-20.1139 6.565,-29.095 4.378,-8.981 10.532,-16.1671 18.463,-21.5583 7.932,-5.3907 16.896,-8.0867 26.892,-8.0867 9.118,0 16.458,2.741 22.019,8.2225 5.561,5.4817 8.341,12.7875 8.341,21.9175 0,10.7388 -3.812,19.9203 -11.437,27.5447 -7.624,7.6244 -19.725,13.3879 -36.303,17.2906 3.103,4.4298 9.336,6.6447 18.7,6.6447 6.19,0 13.352,-2.2281 21.486,-6.6842 8.134,-4.4562 15.136,-10.2478 21.005,-17.3749 2.342,-2.7339 4.972,-4.1009 7.889,-4.1009 z m -55.44,-27.72 c -4.588,0 -8.595,2.8892 -12.021,8.6677 -3.426,5.7784 -5.139,12.9358 -5.139,21.4723 v -1.76 c 6.462,-1.7737 12.001,-4.5616 16.617,-8.3634 4.615,-3.8019 6.923,-8.1274 6.923,-12.9766 0,-2.1794 -0.574,-3.8975 -1.721,-5.1545 -1.147,-1.257 -2.7,-1.8855 -4.659,-1.8855 z m 132.71,4.4 c 3.866,0 7.143,1.3435 9.83,4.0305 2.687,2.687 4.03,5.9635 4.03,9.8295 0,2.1702 -0.478,4.4504 -1.433,6.8406 -2.539,5.8713 -6.101,10.7823 -10.684,14.7332 -4.583,3.9508 -9.711,5.9262 -15.383,5.9262 -4.737,0 -8.744,-1.6809 -12.022,-5.0428 -3.279,-3.3619 -4.918,-7.8409 -4.918,-13.4372 0,-2.8898 0.155,-6.0362 0.464,-9.4394 0.278,-2.2137 0.416,-3.6873 0.416,-4.4206 0,-0.5798 -0.065,-0.9447 -0.196,-1.0948 -0.13,-0.1501 -0.212,-0.2252 -0.244,-0.2252 -1.288,0 -3.574,2.2923 -6.859,6.8767 -3.285,4.5845 -6.644,10.8115 -10.077,18.6811 -3.433,7.8696 -6.276,16.3797 -8.529,25.5303 -1.634,7.1363 -3.642,12.06565 -6.024,14.78815 -2.382,2.7225 -6.259,4.08375 -11.631,4.08375 -6.593,0 -11.138,-3.22151 -13.635,-9.66453 -2.496,-6.44307 -3.745,-16.27487 -3.745,-29.49547 0,-19.3142 2.737,-37.6177 8.209,-54.9106 1.448,-4.659 3.879,-8.1124 7.291,-10.3594 3.412,-2.246 8.072,-3.37 13.98,-3.37 3.36,0 5.886,0.529 7.58,1.588 1.694,1.059 2.54,2.95 2.54,5.672 0,2.4796 -1.1,7.496 -3.3,15.0494 -1.576,7.0125 -2.785,12.6196 -3.625,16.8214 -0.839,4.2018 -1.538,8.6848 -2.095,13.4492 2.042,-11.7173 6.147,-21.6379 12.315,-29.7619 6.168,-8.1239 12.257,-13.9579 18.267,-17.5021 6.01,-3.544 11.583,-5.316 16.718,-5.316 4.9,0 8.691,1.428 11.375,4.283 2.683,2.8556 4.025,6.8545 4.025,11.997 0,2.8875 -0.806,7.5075 -2.42,13.86 z"
       transform="translate(2887.16,372)"
       id="path9" /><text
       font-family="Pacifico, Pacifico_MSFontService, sans-serif"
       font-weight="700"
       font-size="220px"
       transform="translate(3591.85,372)"
       id="text10"> </text><text
       font-family="Pacifico, Pacifico_MSFontService, sans-serif"
       font-weight="400"
       font-size="73px"
       transform="translate(3075.72,471)"
       id="text12"> </text><path
       d="m 1784,374 c 0,-1.657 1.34,-3 3,-3 h 1811 c 1.66,0 3,1.343 3,3 v 12 c 0,1.657 -1.34,3 -3,3 H 1787 c -1.66,0 -3,-1.343 -3,-3 z"
       fill="url(#fill3)"
       fill-rule="evenodd"
       id="path12"
       style="fill:url(#fill3)" /><path
       d="m 1867.41,156.149 42.26,15.371 -77.21,212.291 -42.26,-15.371 z"
       fill-rule="evenodd"
       id="path13" /><path
       id="rect13"
       d="m 1808,345 h 123 v 34.9997 h -123 z" /></g></svg>
