<svg width="281" height="335" xmlns="http://www.w3.org/2000/svg" xmlns:xlink="http://www.w3.org/1999/xlink" xml:space="preserve" overflow="hidden"><g transform="translate(-631 -1950)"><path d="M830.047 1982.76 746.465 1951.62C734.778 1947.27 721.834 1953.23 717.555 1964.95 717.555 1964.95 717.554 1964.95 717.553 1964.95L633.138 2196.17C631.06 2201.79 631.318 2208.03 633.853 2213.48L660.352 2270.95C665.592 2282.31 678.991 2287.3 690.281 2282.09L747.376 2255.76C752.808 2253.28 757.011 2248.71 759.044 2243.07L843.466 2011.86C847.745 2000.15 841.739 1987.12 830.052 1982.77 830.05 1982.77 830.048 1982.77 830.047 1982.76ZM737.888 2235.19 680.793 2261.52 654.294 2204.05 714.541 2039.05 798.135 2070.19ZM805.873 2048.97 722.284 2017.85 738.715 1972.85 822.304 2003.97Z" fill="#D9D9D9" fill-rule="evenodd"/><path d="M758.083 2050.19 800.346 2065.56 723.136 2277.85 680.873 2262.48Z" fill="#D9D9D9" fill-rule="evenodd"/><rect x="681" y="2264" width="117" height="21" fill="#D9D9D9"/><path d="M702 2223.33C702 2216.52 707.522 2211 714.334 2211L899.666 2211C906.478 2211 912 2216.52 912 2223.33L912 2272.67C912 2279.48 906.478 2285 899.666 2285L714.334 2285C707.522 2285 702 2279.48 702 2272.67Z" fill="#D9D9D9" fill-rule="evenodd"/></g></svg>