<?xml version="1.0" encoding="UTF-8" standalone="no"?>
<svg
   width="1860.4128"
   height="448.51352"
   xml:space="preserve"
   overflow="hidden"
   version="1.1"
   id="svg13"
   sodipodi:docname="图片15.svg"
   xmlns:inkscape="http://www.inkscape.org/namespaces/inkscape"
   xmlns:sodipodi="http://sodipodi.sourceforge.net/DTD/sodipodi-0.dtd"
   xmlns="http://www.w3.org/2000/svg"
   xmlns:svg="http://www.w3.org/2000/svg"><sodipodi:namedview
     id="namedview13"
     pagecolor="#ffffff"
     bordercolor="#999999"
     borderopacity="1"
     inkscape:showpageshadow="2"
     inkscape:pageopacity="0"
     inkscape:pagecheckerboard="0"
     inkscape:deskcolor="#d1d1d1" /><defs
     id="defs4"><clipPath
       id="clip0"><rect
         x="1161"
         y="1774"
         width="2609"
         height="766"
         id="rect1" /></clipPath><linearGradient
       x1="1357"
       y1="2099"
       x2="3175"
       y2="2099"
       gradientUnits="userSpaceOnUse"
       spreadMethod="reflect"
       id="fill3"><stop
         offset="0"
         stop-color="#D9D9D9"
         id="stop2" /><stop
         offset="0.5"
         stop-color="#D9D9D9"
         id="stop3" /><stop
         offset="1"
         stop-color="#D9D9D9"
         stop-opacity="0"
         id="stop4" /></linearGradient></defs><g
     clip-path="url(#clip0)"
     transform="translate(-1314.5871,-1774.8475)"
     id="g13"><path
       d="m 1512.89,1807.41 -83.58,-31.14 c -11.69,-4.35 -24.63,1.61 -28.91,13.33 0,0 -0.01,0 -0.01,0 l -84.41,231.22 c -2.08,5.62 -1.82,11.86 0.71,17.31 l 26.5,57.46 c 5.24,11.37 18.64,16.36 29.93,11.15 l 57.1,-26.33 c 5.43,-2.48 9.63,-7.05 11.66,-12.69 l 84.43,-231.21 c 4.28,-11.71 -1.73,-24.74 -13.42,-29.09 z m -92.16,252.43 -57.1,26.33 -26.5,-57.47 60.25,-165 83.6,31.14 z m 67.98,-186.22 -83.59,-31.12 16.44,-45 83.58,31.12 z"
       fill="#d9d9d9"
       fill-rule="evenodd"
       id="path4" /><path
       d="m 13.6426,0 h 29.3261 l 37.492,-110.322 H 93.2439 L 75.7744,-155.01 84.776,0 h 21.832 l 114.401,-155.01 -47.843,44.688 h 12.783 L 148.457,0 h 29.326 l 54.139,-159.307 h -35.729 l -87.747,118.4867 h 2.237 L 103.469,-159.307 H 67.7815 Z M 200.986,0 h 29.326 l 37.492,-110.322 h 12.784 L 263.118,-155.01 272.12,0 h 21.832 l 114.4,-155.01 -47.843,44.688 h 12.784 L 335.801,0 h 29.326 l 54.139,-159.307 h -35.73 l -87.747,118.4867 h 2.238 l -7.214,-118.4867 h -35.688 z m 230.513,2.25586 c 9.656,0 18.766,-1.550345 27.329,-4.65103 8.563,-3.10069 15.998,-7.531 22.304,-13.29093 6.306,-5.7599 10.756,-12.4551 13.349,-20.0854 l 0.037,-0.1074 c 2.985,-8.7829 2.676,-15.8142 -0.925,-21.0941 -3.6,-5.2799 -10.54,-9.0579 -20.819,-11.3339 l -18.485,-4.7534 c -3.807,-0.9791 -6.562,-2.0195 -8.265,-3.1211 -1.703,-1.1016 -2.751,-2.3415 -3.145,-3.7195 -0.393,-1.378 -0.286,-2.9605 0.322,-4.7475 l 0.037,-0.1075 c 0.792,-2.3319 2.119,-4.3592 3.982,-6.0819 1.862,-1.7226 4.25,-3.0912 7.164,-4.1055 2.913,-1.0144 6.182,-1.5215 9.806,-1.5215 5.69,0 9.673,1.3156 11.949,3.9469 2.276,2.6313 2.983,5.9527 2.122,9.9642 l -0.59,2.7393 h 29.092 l 1.064,-3.5752 c 2.041,-6.8862 2.061,-13.1373 0.062,-18.7534 -2,-5.616 -5.982,-10.084 -11.947,-13.404 -5.964,-3.32 -13.823,-4.98 -23.574,-4.98 -9.363,0 -18.171,1.539 -26.424,4.616 -8.253,3.078 -15.35,7.404 -21.29,12.977 -5.941,5.574 -10.169,12.0629 -12.684,19.4672 l -0.037,0.1074 c -2.06,6.0604 -2.558,11.3876 -1.494,15.9816 1.064,4.5939 3.643,8.3959 7.736,11.406 4.093,3.01 9.169,5.2625 15.227,6.7575 l 17.871,4.2834 c 5.694,1.4133 9.205,3.0109 10.533,4.7929 1.327,1.782 1.531,4.0252 0.612,6.7298 l -0.036,0.1074 c -0.776,2.285 -2.156,4.2893 -4.14,6.0131 -1.983,1.7238 -4.522,3.0683 -7.616,4.0334 -3.094,0.9651 -6.708,1.4477 -10.843,1.4477 -6.335,0 -10.754,-1.201 -13.256,-3.6029 -2.502,-2.4019 -3.449,-5.8167 -2.84,-10.2445 l 0.321,-2.6956 h -30.272 l -1.042,3.3838 c -1.612,7.4177 -1.276,13.9469 1.009,19.5877 2.285,5.64076 6.581,9.98994 12.887,13.04755 6.307,3.057606 14.609,4.58641 24.909,4.58641 z"
       fill="#d9d9d9"
       transform="translate(1463.8,2090)"
       id="path5" /><path
       d="m 30.6975,-51.1328 h 73.6915 l 9.492,-27.9297 H 40.1892 Z"
       fill="#d9d9d9"
       transform="translate(1947.91,2090)"
       id="path6" /><path
       d="M 13.6426,0 H 116.016 l 9.382,-27.6074 H 55.1443 L 99.9007,-159.307 H 67.7815 Z M 164.091,1.93359 c 5.319,0 10.576,-0.82832 15.771,-2.484966 5.196,-1.656644 10.157,-4.049584 14.883,-7.178804 4.727,-3.12922 8.591,-6.38912 11.592,-9.77962 h -2.874 L 197.513,0 h 31.045 l 27.344,-80.459 c 2.728,-8.0298 3.073,-15.0637 1.036,-21.102 -2.037,-6.038 -6.154,-10.708 -12.352,-14.012 -6.197,-3.303 -14.214,-4.954 -24.051,-4.954 -9.874,0 -19.02,1.614 -27.438,4.842 -8.418,3.228 -15.665,7.66 -21.74,13.295 -6.074,5.6353 -10.632,12.0303 -13.672,19.1851 l -1.333,3.6053 h 28.668 l 1.486,-2.6453 c 2.074,-3.7038 5.204,-6.7491 9.389,-9.1359 4.185,-2.3867 9.179,-3.5801 14.984,-3.5801 6.208,0 10.41,1.4726 12.607,4.4177 2.198,2.9451 2.435,6.9511 0.713,12.0178 l -11.608,34.1602 c -1.383,4.0675 -3.707,7.7335 -6.971,10.9981 -3.264,3.2646 -7.069,5.8464 -11.414,7.7453 -4.345,1.8989 -8.934,2.8484 -13.768,2.8484 -5.363,0 -9.176,-1.1543 -11.44,-3.4627 -2.263,-2.3085 -2.718,-5.4511 -1.367,-9.428 l 0.037,-0.1074 c 1.3,-3.8258 3.876,-6.9206 7.728,-9.2844 3.851,-2.3639 9.071,-3.7561 15.658,-4.1769 l 42.219,-2.5714 7.439,-21.8872 -46.821,2.7191 c -9.646,0.5908 -18.34,2.365 -26.084,5.3224 -7.744,2.9575 -14.315,7.0227 -19.714,12.1958 -5.398,5.173 -9.331,11.3895 -11.799,18.6494 l -0.072,0.2149 c -2.436,7.1648 -2.896,13.5136 -1.38,19.0464 1.517,5.5327 4.795,9.82878 9.835,12.88807 5.041,3.059281 11.512,4.58892 19.414,4.58892 z m 146.63,0.32227 c 10.159,0 19.794,-2.501476 28.904,-7.50443 9.111,-5.00293 17.225,-12.11883 24.343,-21.34753 7.118,-9.2288 12.789,-20.0574 17.013,-32.4859 l 0.035,-0.1074 c 4.244,-12.4834 5.918,-23.3123 5.024,-32.4868 -0.894,-9.1748 -4.192,-16.2768 -9.894,-21.3068 -5.703,-5.029 -13.53,-7.544 -23.482,-7.544 -5.594,0 -11.139,0.931 -16.635,2.793 -5.496,1.862 -10.683,4.514 -15.561,7.957 -4.878,3.443 -8.965,7.165 -12.262,11.1637 h 3.065 l 20.625,-60.6937 H 300.744 L 246.605,0 h 31.152 l 6.571,-19.3359 h -3.088 c 0.6,3.9343 2.15,7.5947 4.652,10.98133 2.501,3.38659 5.828,6.00164 9.98,7.845155 4.152,1.843515 9.101,2.765275 14.849,2.765275 z m 1.141,-26.74806 c -5.022,0 -9,-1.3772 -11.933,-4.1315 -2.934,-2.7544 -4.646,-6.7164 -5.139,-11.8861 -0.492,-5.1697 0.488,-11.3604 2.939,-18.5722 l 0.035,-0.1074 c 2.442,-7.1839 5.683,-13.352 9.725,-18.5043 4.041,-5.1523 8.444,-9.1034 13.208,-11.8533 4.765,-2.7499 9.657,-4.1249 14.675,-4.1249 5.222,0 9.278,1.3652 12.167,4.0955 2.888,2.7303 4.524,6.6652 4.908,11.8046 0.384,5.1395 -0.656,11.3336 -3.12,18.5824 l -0.035,0.1074 c -2.458,7.2275 -5.614,13.4378 -9.469,18.631 -3.854,5.1931 -8.164,9.1512 -12.928,11.8743 -4.764,2.723 -9.775,4.0845 -15.033,4.0845 z"
       fill="#d9d9d9"
       transform="translate(2044.16,2090)"
       id="path7" /><path
       d="m 292.16,-99.22 c 3.992,0 6.97,0.935 8.934,2.805 1.964,1.87 2.946,4.235 2.946,7.095 0,4.3152 -1.319,8.1755 -3.958,11.5809 -2.639,3.4055 -6.746,5.1918 -12.322,5.3591 -11.759,0.1467 -21.762,-0.7333 -30.009,-2.64 -9.905,21.2896 -22.222,39.2987 -36.95,54.0272 C 206.072,-6.26427 191.359,1.1 176.66,1.1 c -13.849,0 -24.128,-7.12938 -30.838,-21.3881 -6.71,-14.2588 -10.362,-32.3561 -10.955,-54.2919 -6.353,24.8119 -15.223,43.6282 -26.612,56.4489 C 96.867,-5.31036 84.6152,1.1 71.5,1.1 56.4117,1.1 45.1596,-7.94177 37.7437,-26.0253 30.3279,-44.1088 26.62,-68.1404 26.62,-98.12 c 0,-21.746 1.9273,-45.661 5.7819,-71.747 1.0381,-7.428 3.096,-12.763 6.1737,-16.007 3.0777,-3.244 7.8925,-4.866 14.4444,-4.866 4.9271,0 8.8355,1.138 11.7253,3.415 2.8898,2.277 4.3347,6.272 4.3347,11.985 0,0.958 -0.1684,3.127 -0.5053,6.507 -4.3565,29.767 -6.5347,55.171 -6.5347,76.213 0,19.4792 1.5961,34.2856 4.7884,44.4194 C 70.0207,-38.0669 73.9246,-33 78.54,-33 c 4.2992,0 9.9498,-5.1992 16.952,-15.5977 7.002,-10.3984 14.068,-26.11 21.197,-47.135 7.13,-21.0253 13.187,-46.1973 18.171,-75.5163 1.249,-7.185 3.657,-12.229 7.226,-15.134 3.568,-2.905 8.346,-4.357 14.334,-4.357 5.133,0 8.983,1.195 11.55,3.585 2.567,2.391 3.85,5.815 3.85,10.275 0,2.461 -0.147,4.353 -0.44,5.675 -4.107,23.909 -6.16,47.758 -6.16,71.545 0,16.3373 0.537,29.2325 1.61,38.6856 1.074,9.4532 3.044,16.4788 5.91,21.0771 2.865,4.5982 6.885,6.8973 12.06,6.8973 6.297,0 13.63,-5.1413 21.997,-15.4241 8.366,-10.2827 16.068,-22.7413 23.103,-37.3759 -8.601,-5.1127 -15.261,-12.2736 -19.98,-21.483 -4.72,-9.209 -7.08,-19.794 -7.08,-31.757 0,-11.869 1.861,-21.943 5.582,-30.222 3.722,-8.28 8.883,-14.516 15.483,-18.709 6.6,-4.193 13.952,-6.289 22.055,-6.289 10.106,0 18.096,3.603 23.97,10.809 5.873,7.206 8.81,16.877 8.81,29.011 0,16.819 -3.593,34.722 -10.78,53.711 6.144,1.006 14.211,1.509 24.2,1.509 z m -62.7,-41.36 c 0,13.766 3.507,23.666 10.522,29.7 5.012,-15.196 7.518,-28.029 7.518,-38.5 0,-5.752 -0.657,-9.793 -1.971,-12.124 -1.315,-2.331 -2.931,-3.496 -4.849,-3.496 -3.085,0 -5.726,2.036 -7.923,6.107 -2.198,4.071 -3.297,10.175 -3.297,18.313 z M 296.505,1.1 c -6.593,0 -11.138,-3.22151 -13.635,-9.66453 -2.497,-6.44307 -3.745,-16.27487 -3.745,-29.49547 0,-19.3142 2.736,-37.6177 8.209,-54.9106 1.448,-4.659 3.878,-8.1124 7.291,-10.3594 3.412,-2.246 8.072,-3.37 13.98,-3.37 3.36,0 5.886,0.529 7.58,1.588 1.693,1.059 2.54,2.95 2.54,5.672 0,2.4796 -1.1,7.496 -3.3,15.0494 -1.577,7.0125 -2.785,12.6196 -3.625,16.8214 -0.84,4.2018 -1.538,8.6848 -2.095,13.4492 2.042,-11.7173 6.147,-21.6385 12.317,-29.7636 6.169,-8.1251 12.295,-13.9591 18.38,-17.5024 6.084,-3.543 11.765,-5.314 17.043,-5.314 11,0 16.5,5.427 16.5,16.28 0,1.9273 -0.706,6.8108 -2.118,14.6506 -1.081,5.4084 -1.622,8.8115 -1.622,10.2094 0,3.8133 1.1,5.72 3.3,5.72 3.444,0 8.197,-3.0307 14.259,-9.0922 2.298,-2.2985 4.805,-3.4478 7.521,-3.4478 2.718,0 4.791,1.0943 6.218,3.2828 1.428,2.1886 2.142,4.8343 2.142,7.9372 0,6.0248 -1.673,10.7938 -5.019,14.3069 -4.26,4.4114 -9.267,8.1898 -15.02,11.3351 -5.753,3.1453 -11.907,4.718 -18.461,4.718 -8.385,0 -14.808,-2.1903 -19.269,-6.5708 -4.461,-4.3805 -6.691,-10.2569 -6.691,-17.6292 0,-2.3329 0.221,-4.6062 0.663,-6.82 0.291,-2.9012 0.437,-4.8079 0.437,-5.72 0,-0.88 -0.073,-1.32 -0.22,-1.32 -1.467,0 -3.863,2.2739 -7.19,6.8217 -3.326,4.5478 -6.714,10.7749 -10.163,18.6811 -3.449,7.9063 -6.312,16.4886 -8.59,25.7469 -1.613,6.8887 -3.647,11.72931 -6.101,14.52171 C 305.566,-0.296198 301.728,1.1 296.505,1.1 Z m 113.46,-118.14 c -6.749,0 -11.882,-1.634 -15.401,-4.902 -3.519,-3.268 -5.279,-7.794 -5.279,-13.578 0,-5.692 2.239,-10.452 6.717,-14.279 4.478,-3.827 10.013,-5.741 16.603,-5.741 5.952,0 10.85,1.504 14.694,4.513 3.844,3.009 5.766,7.225 5.766,12.647 0,6.511 -2.134,11.695 -6.402,15.553 -4.268,3.858 -9.834,5.787 -16.698,5.787 z M 408.205,1.1 c -10.344,0 -17.844,-3.62943 -22.498,-10.88828 -4.654,-7.25882 -6.982,-16.68272 -6.982,-28.27172 0,-6.8062 0.845,-15.3857 2.534,-25.7383 1.689,-10.3526 3.945,-20.3127 6.768,-29.8804 1.272,-4.5238 3.207,-7.8253 5.806,-9.9033 2.599,-2.079 6.583,-3.118 11.952,-3.118 8.947,0 13.42,3.153 13.42,9.46 0,3.7675 -1.416,12.4346 -4.248,26.0013 -3.475,15.927 -5.212,26.6933 -5.212,32.2987 0,4.1433 0.454,7.1225 1.362,8.9375 0.907,1.815 2.287,2.7225 4.138,2.7225 2.033,0 4.891,-1.7044 8.573,-5.1133 3.683,-3.4088 8.76,-8.9965 15.232,-16.7629 2.333,-2.7225 4.958,-4.0838 7.875,-4.0838 2.746,0 4.825,1.1309 6.239,3.3928 1.414,2.2619 2.121,5.091 2.121,8.4872 0,6.4052 -1.544,11.3965 -4.633,14.9738 C 435.66,-8.06208 421.511,1.1 408.205,1.1 Z m 125.487,-54.34 c 2.746,0 4.826,1.1309 6.24,3.3928 1.413,2.2619 2.12,5.091 2.12,8.4872 0,6.4052 -1.546,11.3999 -4.64,14.9841 -6.49,7.9979 -13.605,14.5767 -21.344,19.73637 C 508.329,-1.47984 499.391,1.1 489.252,1.1 c -31.386,0 -47.08,-21.78 -47.08,-65.34 0,-6.5358 0.22,-12.3292 0.66,-17.38 h -6.38 c -5.062,0 -8.564,-1.0175 -10.506,-3.0525 -1.942,-2.035 -2.914,-5.1242 -2.914,-9.2675 0,-9.533 4.034,-14.3 12.1,-14.3 h 10.605 c 2.324,-15.047 6.096,-29.357 11.316,-42.929 5.221,-13.573 11.607,-24.477 19.158,-32.715 7.551,-8.237 15.858,-12.356 24.921,-12.356 6.974,0 12.384,2.965 16.231,8.896 3.846,5.931 5.769,13.159 5.769,21.684 0,23.386 -9.533,42.526 -28.6,57.42 h 22.44 c 2.986,0 5.2,0.72 6.64,2.16 1.44,1.441 2.16,3.801 2.16,7.08 0,11.5867 -9.02,17.38 -27.06,17.38 h -24.756 c -0.216,5.3533 -0.324,10.34 -0.324,14.96 0,14.9463 1.649,25.2461 4.947,30.8997 3.298,5.6535 8.396,8.4803 15.293,8.4803 5.757,0 10.928,-1.8058 15.512,-5.4175 4.585,-3.6117 10.146,-9.1953 16.684,-16.7509 2.166,-2.5277 4.707,-3.7916 7.624,-3.7916 z m -38.5,-117.7 c -1.29,0 -3.172,2.508 -5.646,7.523 -2.473,5.015 -4.911,12.362 -7.313,22.041 -2.402,9.679 -4.388,19.551 -5.961,29.616 5.927,-6.744 11.002,-14.663 15.225,-23.757 4.224,-9.093 6.335,-17.307 6.335,-24.643 0,-7.187 -0.88,-10.78 -2.64,-10.78 z m 125.011,117.7 c 2.745,0 4.825,1.1309 6.239,3.3928 1.414,2.2619 2.121,5.091 2.121,8.4872 0,6.4052 -1.542,11.3942 -4.627,14.9669 -5.642,6.8612 -13.555,13.1587 -23.738,18.89248 C 590.015,-1.76688 579.083,1.1 567.403,1.1 c -16.012,0 -28.485,-4.39026 -37.419,-13.1708 -8.934,-8.7805 -13.401,-20.7436 -13.401,-35.8892 0,-10.4156 2.188,-20.1139 6.565,-29.095 4.378,-8.981 10.532,-16.1671 18.463,-21.5583 7.932,-5.3907 16.896,-8.0867 26.892,-8.0867 9.118,0 16.458,2.741 22.019,8.2225 5.561,5.4817 8.341,12.7875 8.341,21.9175 0,10.7388 -3.812,19.9203 -11.437,27.5447 -7.624,7.6244 -19.725,13.3879 -36.303,17.2906 3.103,4.4298 9.336,6.6447 18.7,6.6447 6.19,0 13.352,-2.2281 21.486,-6.6842 8.134,-4.4562 15.136,-10.2478 21.005,-17.3749 2.342,-2.7339 4.972,-4.1009 7.889,-4.1009 z m -55.44,-27.72 c -4.588,0 -8.595,2.8892 -12.021,8.6677 -3.426,5.7784 -5.139,12.9358 -5.139,21.4723 v -1.76 c 6.462,-1.7737 12.001,-4.5616 16.617,-8.3634 4.615,-3.8019 6.923,-8.1274 6.923,-12.9766 0,-2.1794 -0.574,-3.8975 -1.721,-5.1545 -1.147,-1.257 -2.7,-1.8855 -4.659,-1.8855 z m 132.71,4.4 c 3.866,0 7.143,1.3435 9.83,4.0305 2.687,2.687 4.03,5.9635 4.03,9.8295 0,2.1702 -0.478,4.4504 -1.433,6.8406 -2.539,5.8713 -6.101,10.7823 -10.684,14.7332 -4.583,3.9508 -9.711,5.9262 -15.383,5.9262 -4.737,0 -8.744,-1.6809 -12.022,-5.0428 -3.279,-3.3619 -4.918,-7.8409 -4.918,-13.4372 0,-2.8898 0.155,-6.0362 0.464,-9.4394 0.278,-2.2137 0.416,-3.6873 0.416,-4.4206 0,-0.5798 -0.065,-0.9447 -0.196,-1.0948 -0.13,-0.1501 -0.212,-0.2252 -0.244,-0.2252 -1.288,0 -3.574,2.2923 -6.859,6.8767 -3.285,4.5845 -6.644,10.8115 -10.077,18.6811 -3.433,7.8696 -6.276,16.3797 -8.529,25.5303 -1.634,7.1363 -3.642,12.06565 -6.024,14.78815 -2.382,2.7225 -6.259,4.08375 -11.631,4.08375 -6.593,0 -11.138,-3.22151 -13.635,-9.66453 -2.496,-6.44307 -3.745,-16.27487 -3.745,-29.49547 0,-19.3142 2.737,-37.6177 8.209,-54.9106 1.448,-4.659 3.879,-8.1124 7.291,-10.3594 3.412,-2.246 8.072,-3.37 13.98,-3.37 3.36,0 5.886,0.529 7.58,1.588 1.694,1.059 2.54,2.95 2.54,5.672 0,2.4796 -1.1,7.496 -3.3,15.0494 -1.576,7.0125 -2.785,12.6196 -3.625,16.8214 -0.839,4.2018 -1.538,8.6848 -2.095,13.4492 2.042,-11.7173 6.147,-21.6379 12.315,-29.7619 6.168,-8.1239 12.257,-13.9579 18.267,-17.5021 6.01,-3.544 11.583,-5.316 16.718,-5.316 4.9,0 8.691,1.428 11.375,4.283 2.683,2.8556 4.025,6.8545 4.025,11.997 0,2.8875 -0.806,7.5075 -2.42,13.86 z"
       fill="#d9d9d9"
       transform="translate(2460.68,2090)"
       id="path9" /><text
       fill="#d9d9d9"
       font-family="Pacifico, Pacifico_MSFontService, sans-serif"
       font-weight="700"
       font-size="220px"
       transform="translate(3165.36,2090)"
       id="text10"> </text><text
       fill="#d9d9d9"
       font-family="Pacifico, Pacifico_MSFontService, sans-serif"
       font-weight="400"
       font-size="73px"
       transform="translate(1872.93,2190)"
       id="text11">Think Deep, Write Easy.</text><text
       fill="#d9d9d9"
       font-family="Pacifico, Pacifico_MSFontService, sans-serif"
       font-weight="400"
       font-size="73px"
       transform="translate(2649.24,2190)"
       id="text12"> </text><path
       d="m 1357,2093 c 0,-1.66 1.34,-3 3,-3 h 1812 c 1.66,0 3,1.34 3,3 v 12 c 0,1.66 -1.34,3 -3,3 H 1360 c -1.66,0 -3,-1.34 -3,-3 z"
       fill="url(#fill3)"
       fill-rule="evenodd"
       id="path12"
       style="fill:url(#fill3)" /><path
       d="m 1440.92,1874.84 42.27,15.37 -77.21,212.29 -42.27,-15.37 z"
       fill="#d9d9d9"
       fill-rule="evenodd"
       id="path13" /><rect
       x="1381"
       y="2064"
       width="124"
       height="35"
       fill="#d9d9d9"
       id="rect13" /></g></svg>
