<svg width="281" height="335" xmlns="http://www.w3.org/2000/svg" xmlns:xlink="http://www.w3.org/1999/xlink" xml:space="preserve" overflow="hidden"><defs><clipPath id="clip0"><rect x="889" y="1958" width="281" height="335"/></clipPath></defs><g clip-path="url(#clip0)" transform="translate(-889 -1958)"><path d="M1088.24 1991.01 1004.66 1959.87C992.972 1955.51 980.029 1961.48 975.75 1973.19 975.749 1973.2 975.749 1973.2 975.748 1973.2L891.333 2204.42C889.255 2210.04 889.512 2216.27 892.047 2221.73L918.547 2279.19C923.786 2290.55 937.186 2295.54 948.475 2290.34L1005.57 2264.01C1011 2261.53 1015.21 2256.95 1017.24 2251.32L1101.66 2020.11C1105.94 2008.39 1099.93 1995.37 1088.25 1991.01 1088.24 1991.01 1088.24 1991.01 1088.24 1991.01ZM996.083 2243.44 938.988 2269.76 912.489 2212.3 972.736 2047.3 1056.33 2078.44ZM1064.07 2057.22 980.479 2026.09 996.91 1981.09 1080.5 2012.22Z" fill-rule="evenodd"/><path d="M1016.28 2058.44 1058.54 2073.81 981.331 2286.1 939.068 2270.73Z" fill-rule="evenodd"/><rect x="939" y="2272" width="117" height="21.0002"/><path d="M960 2231.33C960 2224.52 965.522 2219 972.334 2219L1157.67 2219C1164.48 2219 1170 2224.52 1170 2231.33L1170 2280.67C1170 2287.48 1164.48 2293 1157.67 2293L972.334 2293C965.522 2293 960 2287.48 960 2280.67Z" fill-rule="evenodd"/></g></svg>